<?xml version="1.0" standalone="no"?>
<!DOCTYPE svg PUBLIC "-//W3C//DTD SVG 20010904//EN"
 "http://www.w3.org/TR/2001/REC-SVG-20010904/DTD/svg10.dtd">
<svg version="1.0" xmlns="http://www.w3.org/2000/svg"
 width="256.000000pt" height="256.000000pt" viewBox="0 0 256.000000 256.000000"
 preserveAspectRatio="xMidYMid meet">
<metadata>
Created by potrace 1.11, written by Peter Selinger 2001-2013
</metadata>
<g transform="translate(0.000000,256.000000) scale(0.100000,-0.100000)"
fill="#000000" stroke="none">
<path d="M1018 2545 c-93 -34 -196 -122 -237 -203 -11 -22 -27 -42 -35 -45
-11 -4 -15 -23 -15 -69 0 -35 -2 -72 -5 -83 -2 -11 -5 -23 -5 -27 -1 -5 -97
-8 -213 -8 -173 -1 -217 -3 -233 -16 -19 -14 -19 -30 -20 -625 l0 -611 -35
-30 c-135 -115 -158 -162 -136 -270 4 -20 16 -45 27 -57 17 -18 103 -51 134
-51 9 0 11 -57 11 -207 -1 -115 0 -216 2 -225 4 -17 59 -18 978 -18 l974 0 1
98 c0 53 0 164 0 247 0 121 3 153 16 167 8 9 57 26 112 39 101 23 139 38 160
63 21 25 15 100 -13 155 -30 61 -54 87 -121 132 -46 31 -73 52 -131 105 l-23
20 0 523 c0 482 -1 524 -17 542 -16 17 -33 19 -212 19 l-195 0 -36 33 c-20 18
-37 37 -38 42 -1 6 -4 26 -8 45 -8 50 -38 130 -47 130 -4 0 -8 6 -8 13 0 24
-105 116 -173 152 l-68 35 -177 -1 c-122 0 -188 -5 -214 -14z"/>
</g>
</svg>
